<?xml version="1.0"?>
<svg id="c" xmlns="http://www.w3.org/2000/svg" viewBox="0 0 24 24">
  <g transform="translate(0 8.879999999999999) scale(0.63 0.63)">
    <path d="m15.78,8c4.28,4.05,6.55,8.61,5.06,10.19s-6.17-.43-10.46-4.48S3.83,5.1,5.32,3.53s6.17.43,10.46,4.48C9.78,2.34,3.23-.47,1.14,1.74s1.08,8.59,7.08,14.26,12.55,8.47,14.63,6.26-1.08-8.59-7.08-14.26Z" fill="#ff8bf5"/>
    <circle cx="11.56" cy="12.05" r="7.8" fill="#6e85f8"/>
    <path d="m16.57,18.02c-1.87-.82-4.08-2.31-6.19-4.31-2.34-2.21-4.07-4.57-4.92-6.52-.87,1.09-1.45,2.41-1.63,3.86,1.2,1.63,2.68,3.31,4.4,4.94,1.53,1.44,3.09,2.7,4.61,3.74,1.41-.23,2.69-.83,3.74-1.71Z" fill="#ff8bf5"/>
  </g>
  <g transform="translate(8.879999999999999 0) scale(0.63 0.63)">
    <path d="m13.65,3.49l1.64,3.33c.27.54.79.92,1.39,1.01l3.67.53c1.51.22,2.11,2.08,1.02,3.14l-2.66,2.59c-.43.42-.63,1.03-.53,1.63l.63,3.66c.26,1.5-1.32,2.65-2.67,1.94l-3.29-1.73c-.54-.28-1.18-.28-1.71,0l-3.29,1.73c-1.35.71-2.93-.44-2.67-1.94l.63-3.66c.1-.6-.1-1.21-.53-1.63l-2.66-2.59c-1.09-1.07-.49-2.92,1.02-3.14l3.67-.53c.6-.09,1.12-.46,1.39-1.01l1.64-3.33c.68-1.37,2.63-1.37,3.3,0Z" fill="#6e85f8"/>
  </g>
</svg>