<?xml version="1.0"?>
<svg id="c" xmlns="http://www.w3.org/2000/svg" viewBox="0 0 24 24">
  <g>
    <rect x="3.89" y="2.84" width="12.61" height="6.53" rx="1.46" ry="1.46" transform="translate(20.34 12.3) rotate(-179.55)" fill="#1785ff"/>
    <path d="m17.37,7.41c-3.85,1.23-15.55-2.38-16.39.64-3.38,12.27,4.43,15.13,10.4,14.87,8.4-.28,11.8-6.98,10.36-15.33,1.98-.61,3.65-6.49.14-6.6-1.76-.11-2.53,1.79-2.43,3.28.02-1.65-1.25-3.61-3.01-3.12-2.66.71-2.09,5.69.92,6.25Z" fill="#9a8bff"/>
    <path d="m10.38,12.73c-3.07,1.88-8.65,1.34-10.17-.35-.59,8.62,5.99,10.76,11.18,10.54,1.52-.05,2.88-.32,4.07-.76-5.18-1.92-5.88-5.37-5.08-9.43Z" fill="#ff8bf5"/>
    <g>
      <path d="m16.49,7.96v-.37c-3.13.41-9.04-.89-12.61-.77v1.04c-.01.81.64,1.47,1.44,1.47l9.69.08c.81,0,1.47-.64,1.47-1.45Z" fill="#9a8bff"/>
      <path d="m16.5,7.08l.02-2.72c0-.81-.64-1.47-1.45-1.47h-.2c-.38,1.46.21,3.39,1.63,4.2Z" fill="#9a8bff"/>
    </g>
    <path d="m16.5,7.09l.02-2.73c0-.81-.64-1.47-1.45-1.47h-.21c-.9,1.49-.23,3.77,1.64,4.21Z" fill="#1785ff"/>
  </g>
  <g transform="translate(10.799999999999999 10.799999999999999) scale(0.55 0.55)">
    <path d="m4.87,2.39h0C4.65.88,6.53,0,7.55,1.14h0c.69.76,1.92.66,2.46-.22h0c.81-1.3,2.81-.76,2.86.77h0c.04,1.03,1.05,1.74,2.03,1.42h0c1.45-.47,2.64,1.22,1.7,2.43h0c-.63.81-.31,2,.64,2.39h0c1.42.57,1.24,2.63-.26,2.95h0c-1.01.21-1.53,1.33-1.04,2.24h0c.72,1.35-.74,2.81-2.09,2.1h0c-.91-.48-2.03.04-2.24,1.05h0c-.32,1.49-2.38,1.67-2.95.26h0c-.39-.95-1.58-1.27-2.39-.64h0c-1.2.94-2.9-.25-2.43-1.7h0c.32-.98-.39-1.99-1.42-2.03h0c-1.53-.05-2.06-2.05-.77-2.86h0c.87-.55.98-1.78.21-2.46h0c-1.13-1.02-.26-2.9,1.25-2.69h0c1.02.14,1.89-.73,1.75-1.75Z" fill="#ff958b"/>
    <path d="m14.43,19.37l-.64-.53c-1.05-.87-.59-2.58.76-2.8l.82-.13c.55-.09,1.02-.46,1.22-.98l.31-.77c.51-1.27,2.27-1.36,2.9-.14l.38.74c.26.5.76.82,1.31.86l.83.05c1.36.09,1.99,1.74,1.03,2.71l-.58.59c-.39.4-.55.97-.41,1.52l.2.8c.34,1.33-1.04,2.43-2.26,1.82l-.74-.37c-.5-.25-1.1-.22-1.57.08l-.7.44c-1.16.73-2.64-.24-2.43-1.59l.13-.82c.08-.55-.13-1.11-.56-1.47Z" fill="#ff958b"/>
  </g>
</svg>