<?xml version="1.0"?>
<svg id="c" xmlns="http://www.w3.org/2000/svg" viewBox="0 0 24 24">
  <g>
    <rect x="2.6" y="3.98" width="6.44" height="4.54" rx=".81" ry=".81" fill="#1785ff"/>
    <rect x="1.53" y="5.36" width="20.95" height="14.67" rx="2.65" ry="2.65" fill="#6ee4f8"/>
    <circle cx="15.2" cy="12.7" r="4.48" fill="#ff8bf5"/>
    <rect x="10.64" y="9.68" width="9.25" height="6.03" fill="#b08bff"/>
    <path d="m15.2,6.71c-3.3,0-5.98,2.68-5.98,5.98s2.68,5.98,5.98,5.98,5.98-2.68,5.98-5.98-2.68-5.98-5.98-5.98Zm0,10.46c-2.47,0-4.48-2-4.48-4.48s2-4.48,4.48-4.48,4.48,2,4.48,4.48-2,4.48-4.48,4.48Z" fill="#1785ff"/>
    <circle cx="15.2" cy="12.7" r="3.02" fill="#1785ff"/>
  </g>
  <g transform="translate(12 -0.5) scale(0.5 0.5)">
    <path d="m16.85,21.32l-3.12-2.09c-.36-.24-.85-.16-1.11.18l-2.31,2.96c-.44.56-1.33.35-1.47-.35l-.73-3.68c-.08-.43-.48-.71-.91-.66l-3.73.46c-.7.09-1.18-.69-.79-1.28l2.09-3.12c.24-.36.16-.85-.18-1.11l-2.96-2.31c-.56-.44-.35-1.33.35-1.47l3.68-.73c.43-.08.71-.48.66-.91l-.46-3.73c-.09-.7.69-1.18,1.28-.79l3.12,2.09c.36.24.85.16,1.11-.18l2.31-2.96c.44-.56,1.33-.35,1.47.35l.73,3.68c.08.43.48.71.91.66l3.73-.46c.7-.09,1.18.69.79,1.28l-2.09,3.12c-.24.36-.16.85.18,1.11l2.96,2.31c.56.44.35,1.33-.35,1.47l-3.68.73c-.43.08-.71.48-.66.91l.46,3.73c.09.7-.69,1.18-1.28.79Z" fill="#ff958b"/>
  </g>
</svg>