<?xml version="1.0"?>
<svg id="c" xmlns="http://www.w3.org/2000/svg" viewBox="0 0 24 24">
  <g transform="translate(0 3.6000000000000014) scale(0.7 0.7)">
    <path d="m11.55,4.72c.11,0,.23,0,.34,0,3.61.18,6.4,3.27,6.22,6.89-.18,3.49-3.05,6.23-6.54,6.23-.11,0-.23,0-.34,0-3.61-.18-6.4-3.27-6.22-6.89.18-3.49,3.05-6.23,6.54-6.23m0-3.5C6.23,1.22,1.79,5.39,1.51,10.77c-.28,5.55,3.99,10.28,9.53,10.56.17,0,.35.01.52.01,5.32,0,9.76-4.17,10.04-9.55.28-5.55-3.99-10.28-9.53-10.56-.17,0-.35-.01-.52-.01h0Z" fill="#6e85f8"/>
    <path d="m19.88,16.92c-.91,1.34-2.13,2.44-3.56,3.21l2.08,2.3c.42.46.99.7,1.57.7.51,0,1.01-.18,1.42-.55l.42-.38c.87-.78.94-2.12.15-2.99l-2.08-2.3h0Z" fill="#ff8bf5"/>
  </g>
  <g transform="translate(15.600000000000001 7.800000000000001) scale(0.35 0.35)">
    <rect x=".68" y="9.25" width="15.54" height="5.5" rx="1.86" ry="1.86" transform="translate(5.94 26.45) rotate(-135)" fill="#1785ff"/>
    <rect x="7.78" y="9.25" width="15.54" height="5.5" rx="1.86" ry="1.86" transform="translate(-3.93 14.51) rotate(-45)" fill="#6ee4f8"/>
  </g>
</svg>